<mxfile host="app.diagrams.net" modified="2024-02-18T11:37:22.738Z" agent="Mozilla/5.0 (Windows NT 10.0; Win64; x64) AppleWebKit/537.36 (KHTML, like Gecko) Chrome/121.0.0.0 Safari/537.36" etag="IJPBIz483wBK9qSd7XMj" version="23.1.5" type="device">
  <diagram name="Page-1" id="8eokB26Lsw9J7HjdoXWq">
    <mxGraphModel dx="880" dy="468" grid="1" gridSize="10" guides="1" tooltips="1" connect="1" arrows="1" fold="1" page="1" pageScale="1" pageWidth="850" pageHeight="1100" math="0" shadow="0">
      <root>
        <mxCell id="0" />
        <mxCell id="1" parent="0" />
        <mxCell id="jozoE136x16GR_77htQT-1" value="" style="swimlane;horizontal=0;whiteSpace=wrap;html=1;startSize=70;strokeColor=#525252;" vertex="1" parent="1">
          <mxGeometry x="60" y="110" width="790" height="460" as="geometry" />
        </mxCell>
        <mxCell id="jozoE136x16GR_77htQT-3" value="Add Order" style="shape=ext;double=1;rounded=1;whiteSpace=wrap;html=1;" vertex="1" parent="jozoE136x16GR_77htQT-1">
          <mxGeometry x="80" y="60" width="70" height="20" as="geometry" />
        </mxCell>
        <mxCell id="jozoE136x16GR_77htQT-4" value="Delete" style="shape=ext;double=1;rounded=1;whiteSpace=wrap;html=1;" vertex="1" parent="jozoE136x16GR_77htQT-1">
          <mxGeometry x="160" y="60" width="70" height="20" as="geometry" />
        </mxCell>
        <mxCell id="jozoE136x16GR_77htQT-5" value="Update" style="shape=ext;double=1;rounded=1;whiteSpace=wrap;html=1;" vertex="1" parent="jozoE136x16GR_77htQT-1">
          <mxGeometry x="240" y="60" width="70" height="20" as="geometry" />
        </mxCell>
        <mxCell id="jozoE136x16GR_77htQT-6" value="Search Criteria" style="rounded=1;whiteSpace=wrap;html=1;" vertex="1" parent="jozoE136x16GR_77htQT-1">
          <mxGeometry x="460" y="60" width="90" height="20" as="geometry" />
        </mxCell>
        <mxCell id="jozoE136x16GR_77htQT-7" value="&lt;i&gt;Search here&lt;/i&gt;" style="rounded=0;whiteSpace=wrap;html=1;" vertex="1" parent="jozoE136x16GR_77htQT-1">
          <mxGeometry x="550" y="60" width="120" height="20" as="geometry" />
        </mxCell>
        <mxCell id="jozoE136x16GR_77htQT-8" value="" style="sketch=0;pointerEvents=1;shadow=0;dashed=0;html=1;strokeColor=none;fillColor=#505050;labelPosition=center;verticalLabelPosition=bottom;verticalAlign=top;outlineConnect=0;align=center;shape=mxgraph.office.devices.printer;" vertex="1" parent="jozoE136x16GR_77htQT-1">
          <mxGeometry x="680" y="60" width="20" height="20" as="geometry" />
        </mxCell>
        <mxCell id="jozoE136x16GR_77htQT-9" value="" style="shape=image;html=1;verticalAlign=top;verticalLabelPosition=bottom;labelBackgroundColor=#ffffff;imageAspect=0;aspect=fixed;image=https://cdn3.iconfinder.com/data/icons/brands-applications/512/Excel_D-128.png" vertex="1" parent="jozoE136x16GR_77htQT-1">
          <mxGeometry x="710" y="60" width="24" height="24" as="geometry" />
        </mxCell>
        <mxCell id="jozoE136x16GR_77htQT-10" value="" style="sketch=0;html=1;aspect=fixed;strokeColor=none;shadow=0;fillColor=#00070f;verticalAlign=top;labelPosition=center;verticalLabelPosition=bottom;shape=mxgraph.gcp2.view_list" vertex="1" parent="jozoE136x16GR_77htQT-1">
          <mxGeometry x="740" y="62" width="16.2" height="20" as="geometry" />
        </mxCell>
        <mxCell id="jozoE136x16GR_77htQT-12" value="" style="shape=image;html=1;verticalAlign=top;verticalLabelPosition=bottom;labelBackgroundColor=#ffffff;imageAspect=0;aspect=fixed;image=https://cdn4.iconfinder.com/data/icons/essential-3/32/372-Home-128.png" vertex="1" parent="jozoE136x16GR_77htQT-1">
          <mxGeometry x="10" y="20" width="18" height="18" as="geometry" />
        </mxCell>
        <mxCell id="jozoE136x16GR_77htQT-13" value="" style="html=1;verticalLabelPosition=bottom;align=center;labelBackgroundColor=#ffffff;verticalAlign=top;strokeWidth=2;strokeColor=#0a0a0a;shadow=0;dashed=0;shape=mxgraph.ios7.icons.most_viewed;pointerEvents=1" vertex="1" parent="jozoE136x16GR_77htQT-1">
          <mxGeometry x="30" y="22.599999999999994" width="20" height="12.8" as="geometry" />
        </mxCell>
        <mxCell id="jozoE136x16GR_77htQT-14" value="Workorders" style="text;html=1;align=center;verticalAlign=middle;whiteSpace=wrap;rounded=0;" vertex="1" parent="jozoE136x16GR_77htQT-1">
          <mxGeometry y="70" width="70" height="30" as="geometry" />
        </mxCell>
        <mxCell id="jozoE136x16GR_77htQT-15" value="Users" style="text;html=1;align=center;verticalAlign=middle;whiteSpace=wrap;rounded=0;" vertex="1" parent="jozoE136x16GR_77htQT-1">
          <mxGeometry y="110" width="70" height="30" as="geometry" />
        </mxCell>
        <mxCell id="jozoE136x16GR_77htQT-16" value="Profile" style="text;html=1;align=center;verticalAlign=middle;whiteSpace=wrap;rounded=0;" vertex="1" parent="jozoE136x16GR_77htQT-1">
          <mxGeometry x="5" y="150" width="60" height="30" as="geometry" />
        </mxCell>
        <mxCell id="jozoE136x16GR_77htQT-81" value="&amp;nbsp;Work Orders" style="text;html=1;align=center;verticalAlign=middle;whiteSpace=wrap;rounded=0;fontStyle=1;fontSize=15;" vertex="1" parent="jozoE136x16GR_77htQT-1">
          <mxGeometry x="50" y="8" width="145" height="30" as="geometry" />
        </mxCell>
        <mxCell id="jozoE136x16GR_77htQT-2" value="" style="swimlane;startSize=0;" vertex="1" parent="1">
          <mxGeometry x="130" y="200" width="720" height="370" as="geometry" />
        </mxCell>
        <mxCell id="jozoE136x16GR_77htQT-17" value="" style="dashed=0;labelPosition=right;align=left;shape=mxgraph.gmdl.checkbox;strokeColor=#666666;fillColor=none;strokeWidth=2;aspect=fixed;sketch=0;html=1;" vertex="1" parent="jozoE136x16GR_77htQT-2">
          <mxGeometry x="10" y="60" width="10" height="10" as="geometry" />
        </mxCell>
        <mxCell id="jozoE136x16GR_77htQT-18" value="" style="dashed=0;labelPosition=right;align=left;shape=mxgraph.gmdl.checkbox;strokeColor=#666666;fillColor=none;strokeWidth=2;aspect=fixed;sketch=0;html=1;" vertex="1" parent="jozoE136x16GR_77htQT-2">
          <mxGeometry x="10" y="90" width="10" height="10" as="geometry" />
        </mxCell>
        <mxCell id="jozoE136x16GR_77htQT-19" value="" style="dashed=0;labelPosition=right;align=left;shape=mxgraph.gmdl.checkbox;strokeColor=#666666;fillColor=none;strokeWidth=2;aspect=fixed;sketch=0;html=1;" vertex="1" parent="jozoE136x16GR_77htQT-2">
          <mxGeometry x="10" y="120" width="10" height="10" as="geometry" />
        </mxCell>
        <mxCell id="jozoE136x16GR_77htQT-20" value="" style="dashed=0;labelPosition=right;align=left;shape=mxgraph.gmdl.checkbox;strokeColor=#666666;fillColor=none;strokeWidth=2;aspect=fixed;sketch=0;html=1;" vertex="1" parent="jozoE136x16GR_77htQT-2">
          <mxGeometry x="10" y="150" width="10" height="10" as="geometry" />
        </mxCell>
        <mxCell id="jozoE136x16GR_77htQT-21" value="" style="dashed=0;labelPosition=right;align=left;shape=mxgraph.gmdl.checkbox;strokeColor=#666666;fillColor=none;strokeWidth=2;aspect=fixed;sketch=0;html=1;" vertex="1" parent="jozoE136x16GR_77htQT-2">
          <mxGeometry x="10" y="180" width="10" height="10" as="geometry" />
        </mxCell>
        <mxCell id="jozoE136x16GR_77htQT-22" value="" style="dashed=0;labelPosition=right;align=left;shape=mxgraph.gmdl.checkbox;strokeColor=#666666;fillColor=none;strokeWidth=2;aspect=fixed;sketch=0;html=1;" vertex="1" parent="jozoE136x16GR_77htQT-2">
          <mxGeometry x="10" y="210" width="10" height="10" as="geometry" />
        </mxCell>
        <mxCell id="jozoE136x16GR_77htQT-23" value="" style="dashed=0;labelPosition=right;align=left;shape=mxgraph.gmdl.checkbox;strokeColor=#666666;fillColor=none;strokeWidth=2;aspect=fixed;sketch=0;html=1;" vertex="1" parent="jozoE136x16GR_77htQT-2">
          <mxGeometry x="10" y="240" width="10" height="10" as="geometry" />
        </mxCell>
        <mxCell id="jozoE136x16GR_77htQT-24" value="" style="dashed=0;labelPosition=right;align=left;shape=mxgraph.gmdl.checkbox;strokeColor=#666666;fillColor=none;strokeWidth=2;aspect=fixed;sketch=0;html=1;" vertex="1" parent="jozoE136x16GR_77htQT-2">
          <mxGeometry x="10" y="270" width="10" height="10" as="geometry" />
        </mxCell>
        <mxCell id="jozoE136x16GR_77htQT-25" value="" style="dashed=0;labelPosition=right;align=left;shape=mxgraph.gmdl.checkbox;strokeColor=#666666;fillColor=none;strokeWidth=2;aspect=fixed;sketch=0;html=1;" vertex="1" parent="jozoE136x16GR_77htQT-2">
          <mxGeometry x="10" y="300" width="10" height="10" as="geometry" />
        </mxCell>
        <mxCell id="jozoE136x16GR_77htQT-26" value="" style="dashed=0;labelPosition=right;align=left;shape=mxgraph.gmdl.checkbox;strokeColor=#666666;fillColor=none;strokeWidth=2;aspect=fixed;sketch=0;html=1;" vertex="1" parent="jozoE136x16GR_77htQT-2">
          <mxGeometry x="10" y="330" width="10" height="10" as="geometry" />
        </mxCell>
        <mxCell id="jozoE136x16GR_77htQT-28" value="Workorder ID" style="text;html=1;align=center;verticalAlign=middle;whiteSpace=wrap;rounded=0;" vertex="1" parent="jozoE136x16GR_77htQT-2">
          <mxGeometry x="40" y="10" width="90" height="30" as="geometry" />
        </mxCell>
        <mxCell id="jozoE136x16GR_77htQT-29" value="Organization" style="text;html=1;align=center;verticalAlign=middle;whiteSpace=wrap;rounded=0;" vertex="1" parent="jozoE136x16GR_77htQT-2">
          <mxGeometry x="160" y="10" width="60" height="30" as="geometry" />
        </mxCell>
        <mxCell id="jozoE136x16GR_77htQT-30" value="Created Date" style="text;html=1;align=center;verticalAlign=middle;whiteSpace=wrap;rounded=0;" vertex="1" parent="jozoE136x16GR_77htQT-2">
          <mxGeometry x="258" y="10" width="75" height="30" as="geometry" />
        </mxCell>
        <mxCell id="jozoE136x16GR_77htQT-31" value="Updated Date" style="text;html=1;align=center;verticalAlign=middle;whiteSpace=wrap;rounded=0;" vertex="1" parent="jozoE136x16GR_77htQT-2">
          <mxGeometry x="370" y="10" width="80" height="30" as="geometry" />
        </mxCell>
        <mxCell id="jozoE136x16GR_77htQT-32" value="Status" style="text;html=1;align=center;verticalAlign=middle;whiteSpace=wrap;rounded=0;" vertex="1" parent="jozoE136x16GR_77htQT-2">
          <mxGeometry x="480" y="10" width="60" height="30" as="geometry" />
        </mxCell>
        <mxCell id="jozoE136x16GR_77htQT-33" value="Exports" style="text;html=1;align=center;verticalAlign=middle;whiteSpace=wrap;rounded=0;" vertex="1" parent="jozoE136x16GR_77htQT-2">
          <mxGeometry x="610" y="10" width="60" height="30" as="geometry" />
        </mxCell>
        <mxCell id="jozoE136x16GR_77htQT-34" value="" style="endArrow=none;html=1;rounded=0;strokeColor=#525252;exitX=0.043;exitY=1.008;exitDx=0;exitDy=0;exitPerimeter=0;entryX=0.044;entryY=0.003;entryDx=0;entryDy=0;entryPerimeter=0;" edge="1" parent="jozoE136x16GR_77htQT-2">
          <mxGeometry width="50" height="50" relative="1" as="geometry">
            <mxPoint x="140" y="372" as="sourcePoint" />
            <mxPoint x="141" as="targetPoint" />
          </mxGeometry>
        </mxCell>
        <mxCell id="jozoE136x16GR_77htQT-35" value="" style="endArrow=none;html=1;rounded=0;strokeColor=#525252;exitX=0.043;exitY=1.008;exitDx=0;exitDy=0;exitPerimeter=0;entryX=0.044;entryY=0.003;entryDx=0;entryDy=0;entryPerimeter=0;" edge="1" parent="jozoE136x16GR_77htQT-2">
          <mxGeometry width="50" height="50" relative="1" as="geometry">
            <mxPoint x="240" y="372" as="sourcePoint" />
            <mxPoint x="241" as="targetPoint" />
          </mxGeometry>
        </mxCell>
        <mxCell id="jozoE136x16GR_77htQT-36" value="" style="endArrow=none;html=1;rounded=0;strokeColor=#525252;exitX=0.043;exitY=1.008;exitDx=0;exitDy=0;exitPerimeter=0;entryX=0.044;entryY=0.003;entryDx=0;entryDy=0;entryPerimeter=0;" edge="1" parent="jozoE136x16GR_77htQT-2">
          <mxGeometry width="50" height="50" relative="1" as="geometry">
            <mxPoint x="350" y="370" as="sourcePoint" />
            <mxPoint x="351" y="-2" as="targetPoint" />
          </mxGeometry>
        </mxCell>
        <mxCell id="jozoE136x16GR_77htQT-37" value="" style="endArrow=none;html=1;rounded=0;strokeColor=#525252;exitX=0.043;exitY=1.008;exitDx=0;exitDy=0;exitPerimeter=0;entryX=0.044;entryY=0.003;entryDx=0;entryDy=0;entryPerimeter=0;" edge="1" parent="jozoE136x16GR_77htQT-2">
          <mxGeometry width="50" height="50" relative="1" as="geometry">
            <mxPoint x="460" y="372" as="sourcePoint" />
            <mxPoint x="461" as="targetPoint" />
          </mxGeometry>
        </mxCell>
        <mxCell id="jozoE136x16GR_77htQT-38" value="" style="endArrow=none;html=1;rounded=0;strokeColor=#525252;exitX=0.043;exitY=1.008;exitDx=0;exitDy=0;exitPerimeter=0;entryX=0.044;entryY=0.003;entryDx=0;entryDy=0;entryPerimeter=0;" edge="1" parent="jozoE136x16GR_77htQT-2">
          <mxGeometry width="50" height="50" relative="1" as="geometry">
            <mxPoint x="560" y="372" as="sourcePoint" />
            <mxPoint x="561" as="targetPoint" />
          </mxGeometry>
        </mxCell>
        <mxCell id="jozoE136x16GR_77htQT-39" value="WO0986245" style="text;html=1;align=center;verticalAlign=middle;whiteSpace=wrap;rounded=0;" vertex="1" parent="jozoE136x16GR_77htQT-2">
          <mxGeometry x="50" y="55" width="60" height="20" as="geometry" />
        </mxCell>
        <mxCell id="jozoE136x16GR_77htQT-40" value="WO0986246" style="text;html=1;align=center;verticalAlign=middle;whiteSpace=wrap;rounded=0;" vertex="1" parent="jozoE136x16GR_77htQT-2">
          <mxGeometry x="50" y="85" width="60" height="20" as="geometry" />
        </mxCell>
        <mxCell id="jozoE136x16GR_77htQT-41" value="WO0986248" style="text;html=1;align=center;verticalAlign=middle;whiteSpace=wrap;rounded=0;" vertex="1" parent="jozoE136x16GR_77htQT-2">
          <mxGeometry x="50" y="115" width="60" height="20" as="geometry" />
        </mxCell>
        <mxCell id="jozoE136x16GR_77htQT-42" value="WO0986267" style="text;html=1;align=center;verticalAlign=middle;whiteSpace=wrap;rounded=0;" vertex="1" parent="jozoE136x16GR_77htQT-2">
          <mxGeometry x="50" y="145" width="60" height="20" as="geometry" />
        </mxCell>
        <mxCell id="jozoE136x16GR_77htQT-43" value="WO0986253" style="text;html=1;align=center;verticalAlign=middle;whiteSpace=wrap;rounded=0;" vertex="1" parent="jozoE136x16GR_77htQT-2">
          <mxGeometry x="50" y="175" width="60" height="20" as="geometry" />
        </mxCell>
        <mxCell id="jozoE136x16GR_77htQT-44" value="Bosch" style="text;html=1;align=center;verticalAlign=middle;whiteSpace=wrap;rounded=0;" vertex="1" parent="jozoE136x16GR_77htQT-2">
          <mxGeometry x="165" y="57.5" width="50" height="15" as="geometry" />
        </mxCell>
        <mxCell id="jozoE136x16GR_77htQT-45" value="Bosch" style="text;html=1;align=center;verticalAlign=middle;whiteSpace=wrap;rounded=0;" vertex="1" parent="jozoE136x16GR_77htQT-2">
          <mxGeometry x="165" y="87.5" width="50" height="15" as="geometry" />
        </mxCell>
        <mxCell id="jozoE136x16GR_77htQT-46" value="IBM" style="text;html=1;align=center;verticalAlign=middle;whiteSpace=wrap;rounded=0;" vertex="1" parent="jozoE136x16GR_77htQT-2">
          <mxGeometry x="165" y="117.5" width="50" height="15" as="geometry" />
        </mxCell>
        <mxCell id="jozoE136x16GR_77htQT-47" value="Wipro" style="text;html=1;align=center;verticalAlign=middle;whiteSpace=wrap;rounded=0;" vertex="1" parent="jozoE136x16GR_77htQT-2">
          <mxGeometry x="165" y="147.5" width="50" height="15" as="geometry" />
        </mxCell>
        <mxCell id="jozoE136x16GR_77htQT-48" value="IBM" style="text;html=1;align=center;verticalAlign=middle;whiteSpace=wrap;rounded=0;" vertex="1" parent="jozoE136x16GR_77htQT-2">
          <mxGeometry x="165" y="177.5" width="50" height="15" as="geometry" />
        </mxCell>
        <mxCell id="jozoE136x16GR_77htQT-51" value="Completed" style="rounded=1;whiteSpace=wrap;html=1;fillColor=#d5e8d4;strokeColor=#82b366;" vertex="1" parent="jozoE136x16GR_77htQT-2">
          <mxGeometry x="470" y="55" width="80" height="20" as="geometry" />
        </mxCell>
        <mxCell id="jozoE136x16GR_77htQT-52" value="Completed" style="rounded=1;whiteSpace=wrap;html=1;fillColor=#d5e8d4;strokeColor=#82b366;" vertex="1" parent="jozoE136x16GR_77htQT-2">
          <mxGeometry x="470" y="115" width="80" height="20" as="geometry" />
        </mxCell>
        <mxCell id="jozoE136x16GR_77htQT-53" value="Pending" style="rounded=1;whiteSpace=wrap;html=1;fillColor=#fff2cc;strokeColor=#d6b656;" vertex="1" parent="jozoE136x16GR_77htQT-2">
          <mxGeometry x="470" y="85" width="80" height="20" as="geometry" />
        </mxCell>
        <mxCell id="jozoE136x16GR_77htQT-54" value="&lt;font style=&quot;font-size: 8px;&quot;&gt;Awaiting confirmation&lt;/font&gt;" style="rounded=1;whiteSpace=wrap;html=1;fillColor=#f8cecc;strokeColor=#b85450;" vertex="1" parent="jozoE136x16GR_77htQT-2">
          <mxGeometry x="470" y="145" width="80" height="20" as="geometry" />
        </mxCell>
        <mxCell id="jozoE136x16GR_77htQT-55" value="Not Started" style="rounded=1;whiteSpace=wrap;html=1;fillColor=#e1d5e7;strokeColor=#9673a6;" vertex="1" parent="jozoE136x16GR_77htQT-2">
          <mxGeometry x="470" y="175" width="80" height="20" as="geometry" />
        </mxCell>
        <mxCell id="jozoE136x16GR_77htQT-56" value="" style="sketch=0;pointerEvents=1;shadow=0;dashed=0;html=1;strokeColor=none;fillColor=#505050;labelPosition=center;verticalLabelPosition=bottom;verticalAlign=top;outlineConnect=0;align=center;shape=mxgraph.office.devices.printer;" vertex="1" parent="jozoE136x16GR_77htQT-2">
          <mxGeometry x="601.9" y="53" width="20" height="20" as="geometry" />
        </mxCell>
        <mxCell id="jozoE136x16GR_77htQT-57" value="" style="shape=image;html=1;verticalAlign=top;verticalLabelPosition=bottom;labelBackgroundColor=#ffffff;imageAspect=0;aspect=fixed;image=https://cdn3.iconfinder.com/data/icons/brands-applications/512/Excel_D-128.png" vertex="1" parent="jozoE136x16GR_77htQT-2">
          <mxGeometry x="631.9" y="53" width="24" height="24" as="geometry" />
        </mxCell>
        <mxCell id="jozoE136x16GR_77htQT-58" value="" style="sketch=0;html=1;aspect=fixed;strokeColor=none;shadow=0;fillColor=#00070f;verticalAlign=top;labelPosition=center;verticalLabelPosition=bottom;shape=mxgraph.gcp2.view_list" vertex="1" parent="jozoE136x16GR_77htQT-2">
          <mxGeometry x="661.9" y="55" width="16.2" height="20" as="geometry" />
        </mxCell>
        <mxCell id="jozoE136x16GR_77htQT-59" value="" style="sketch=0;pointerEvents=1;shadow=0;dashed=0;html=1;strokeColor=none;fillColor=#505050;labelPosition=center;verticalLabelPosition=bottom;verticalAlign=top;outlineConnect=0;align=center;shape=mxgraph.office.devices.printer;" vertex="1" parent="jozoE136x16GR_77htQT-2">
          <mxGeometry x="601.9" y="83" width="20" height="20" as="geometry" />
        </mxCell>
        <mxCell id="jozoE136x16GR_77htQT-60" value="" style="shape=image;html=1;verticalAlign=top;verticalLabelPosition=bottom;labelBackgroundColor=#ffffff;imageAspect=0;aspect=fixed;image=https://cdn3.iconfinder.com/data/icons/brands-applications/512/Excel_D-128.png" vertex="1" parent="jozoE136x16GR_77htQT-2">
          <mxGeometry x="631.9" y="83" width="24" height="24" as="geometry" />
        </mxCell>
        <mxCell id="jozoE136x16GR_77htQT-61" value="" style="sketch=0;html=1;aspect=fixed;strokeColor=none;shadow=0;fillColor=#00070f;verticalAlign=top;labelPosition=center;verticalLabelPosition=bottom;shape=mxgraph.gcp2.view_list" vertex="1" parent="jozoE136x16GR_77htQT-2">
          <mxGeometry x="661.9" y="85" width="16.2" height="20" as="geometry" />
        </mxCell>
        <mxCell id="jozoE136x16GR_77htQT-62" value="" style="sketch=0;pointerEvents=1;shadow=0;dashed=0;html=1;strokeColor=none;fillColor=#505050;labelPosition=center;verticalLabelPosition=bottom;verticalAlign=top;outlineConnect=0;align=center;shape=mxgraph.office.devices.printer;" vertex="1" parent="jozoE136x16GR_77htQT-2">
          <mxGeometry x="601.9" y="113" width="20" height="20" as="geometry" />
        </mxCell>
        <mxCell id="jozoE136x16GR_77htQT-63" value="" style="shape=image;html=1;verticalAlign=top;verticalLabelPosition=bottom;labelBackgroundColor=#ffffff;imageAspect=0;aspect=fixed;image=https://cdn3.iconfinder.com/data/icons/brands-applications/512/Excel_D-128.png" vertex="1" parent="jozoE136x16GR_77htQT-2">
          <mxGeometry x="631.9" y="113" width="24" height="24" as="geometry" />
        </mxCell>
        <mxCell id="jozoE136x16GR_77htQT-64" value="" style="sketch=0;html=1;aspect=fixed;strokeColor=none;shadow=0;fillColor=#00070f;verticalAlign=top;labelPosition=center;verticalLabelPosition=bottom;shape=mxgraph.gcp2.view_list" vertex="1" parent="jozoE136x16GR_77htQT-2">
          <mxGeometry x="661.9" y="115" width="16.2" height="20" as="geometry" />
        </mxCell>
        <mxCell id="jozoE136x16GR_77htQT-65" value="" style="sketch=0;pointerEvents=1;shadow=0;dashed=0;html=1;strokeColor=none;fillColor=#505050;labelPosition=center;verticalLabelPosition=bottom;verticalAlign=top;outlineConnect=0;align=center;shape=mxgraph.office.devices.printer;" vertex="1" parent="jozoE136x16GR_77htQT-2">
          <mxGeometry x="601.9" y="143" width="20" height="20" as="geometry" />
        </mxCell>
        <mxCell id="jozoE136x16GR_77htQT-66" value="" style="shape=image;html=1;verticalAlign=top;verticalLabelPosition=bottom;labelBackgroundColor=#ffffff;imageAspect=0;aspect=fixed;image=https://cdn3.iconfinder.com/data/icons/brands-applications/512/Excel_D-128.png" vertex="1" parent="jozoE136x16GR_77htQT-2">
          <mxGeometry x="631.9" y="143" width="24" height="24" as="geometry" />
        </mxCell>
        <mxCell id="jozoE136x16GR_77htQT-67" value="" style="sketch=0;html=1;aspect=fixed;strokeColor=none;shadow=0;fillColor=#00070f;verticalAlign=top;labelPosition=center;verticalLabelPosition=bottom;shape=mxgraph.gcp2.view_list" vertex="1" parent="jozoE136x16GR_77htQT-2">
          <mxGeometry x="661.9" y="145" width="16.2" height="20" as="geometry" />
        </mxCell>
        <mxCell id="jozoE136x16GR_77htQT-68" value="" style="sketch=0;pointerEvents=1;shadow=0;dashed=0;html=1;strokeColor=none;fillColor=#505050;labelPosition=center;verticalLabelPosition=bottom;verticalAlign=top;outlineConnect=0;align=center;shape=mxgraph.office.devices.printer;" vertex="1" parent="jozoE136x16GR_77htQT-2">
          <mxGeometry x="601.9" y="173" width="20" height="20" as="geometry" />
        </mxCell>
        <mxCell id="jozoE136x16GR_77htQT-69" value="" style="shape=image;html=1;verticalAlign=top;verticalLabelPosition=bottom;labelBackgroundColor=#ffffff;imageAspect=0;aspect=fixed;image=https://cdn3.iconfinder.com/data/icons/brands-applications/512/Excel_D-128.png" vertex="1" parent="jozoE136x16GR_77htQT-2">
          <mxGeometry x="631.9" y="173" width="24" height="24" as="geometry" />
        </mxCell>
        <mxCell id="jozoE136x16GR_77htQT-70" value="" style="sketch=0;html=1;aspect=fixed;strokeColor=none;shadow=0;fillColor=#00070f;verticalAlign=top;labelPosition=center;verticalLabelPosition=bottom;shape=mxgraph.gcp2.view_list" vertex="1" parent="jozoE136x16GR_77htQT-2">
          <mxGeometry x="661.9" y="175" width="16.2" height="20" as="geometry" />
        </mxCell>
        <mxCell id="jozoE136x16GR_77htQT-71" value="08/12/2023" style="text;html=1;align=center;verticalAlign=middle;whiteSpace=wrap;rounded=0;" vertex="1" parent="jozoE136x16GR_77htQT-2">
          <mxGeometry x="265.5" y="50" width="60" height="30" as="geometry" />
        </mxCell>
        <mxCell id="jozoE136x16GR_77htQT-72" value="16/12/2023" style="text;html=1;align=center;verticalAlign=middle;whiteSpace=wrap;rounded=0;" vertex="1" parent="jozoE136x16GR_77htQT-2">
          <mxGeometry x="265.5" y="80" width="60" height="30" as="geometry" />
        </mxCell>
        <mxCell id="jozoE136x16GR_77htQT-73" value="03/01/2024" style="text;html=1;align=center;verticalAlign=middle;whiteSpace=wrap;rounded=0;" vertex="1" parent="jozoE136x16GR_77htQT-2">
          <mxGeometry x="265.5" y="110" width="60" height="30" as="geometry" />
        </mxCell>
        <mxCell id="jozoE136x16GR_77htQT-74" value="19/10/2023" style="text;html=1;align=center;verticalAlign=middle;whiteSpace=wrap;rounded=0;" vertex="1" parent="jozoE136x16GR_77htQT-2">
          <mxGeometry x="265.5" y="140" width="60" height="30" as="geometry" />
        </mxCell>
        <mxCell id="jozoE136x16GR_77htQT-75" value="27/11/2023" style="text;html=1;align=center;verticalAlign=middle;whiteSpace=wrap;rounded=0;" vertex="1" parent="jozoE136x16GR_77htQT-2">
          <mxGeometry x="265" y="170" width="60" height="30" as="geometry" />
        </mxCell>
        <mxCell id="jozoE136x16GR_77htQT-76" value="10/02/2024" style="text;html=1;align=center;verticalAlign=middle;whiteSpace=wrap;rounded=0;" vertex="1" parent="jozoE136x16GR_77htQT-2">
          <mxGeometry x="380" y="50" width="60" height="30" as="geometry" />
        </mxCell>
        <mxCell id="jozoE136x16GR_77htQT-77" value="08/01/2024" style="text;html=1;align=center;verticalAlign=middle;whiteSpace=wrap;rounded=0;" vertex="1" parent="jozoE136x16GR_77htQT-2">
          <mxGeometry x="380" y="80" width="60" height="30" as="geometry" />
        </mxCell>
        <mxCell id="jozoE136x16GR_77htQT-78" value="25/01/2024" style="text;html=1;align=center;verticalAlign=middle;whiteSpace=wrap;rounded=0;" vertex="1" parent="jozoE136x16GR_77htQT-2">
          <mxGeometry x="380" y="110" width="60" height="30" as="geometry" />
        </mxCell>
        <mxCell id="jozoE136x16GR_77htQT-79" value="08/12/2023" style="text;html=1;align=center;verticalAlign=middle;whiteSpace=wrap;rounded=0;" vertex="1" parent="jozoE136x16GR_77htQT-2">
          <mxGeometry x="380" y="140" width="60" height="30" as="geometry" />
        </mxCell>
        <mxCell id="jozoE136x16GR_77htQT-80" value="28/12/2023" style="text;html=1;align=center;verticalAlign=middle;whiteSpace=wrap;rounded=0;" vertex="1" parent="jozoE136x16GR_77htQT-2">
          <mxGeometry x="380" y="170" width="60" height="30" as="geometry" />
        </mxCell>
        <mxCell id="jozoE136x16GR_77htQT-11" value="" style="endArrow=none;html=1;rounded=0;exitX=-0.003;exitY=0.105;exitDx=0;exitDy=0;exitPerimeter=0;entryX=1.001;entryY=0.105;entryDx=0;entryDy=0;entryPerimeter=0;" edge="1" parent="1" source="jozoE136x16GR_77htQT-2" target="jozoE136x16GR_77htQT-2">
          <mxGeometry width="50" height="50" relative="1" as="geometry">
            <mxPoint x="400" y="310" as="sourcePoint" />
            <mxPoint x="450" y="260" as="targetPoint" />
          </mxGeometry>
        </mxCell>
        <mxCell id="jozoE136x16GR_77htQT-27" value="" style="endArrow=none;html=1;rounded=0;strokeColor=#525252;exitX=0.043;exitY=1.008;exitDx=0;exitDy=0;exitPerimeter=0;entryX=0.044;entryY=0.003;entryDx=0;entryDy=0;entryPerimeter=0;" edge="1" parent="1" source="jozoE136x16GR_77htQT-2" target="jozoE136x16GR_77htQT-2">
          <mxGeometry width="50" height="50" relative="1" as="geometry">
            <mxPoint x="170" y="310" as="sourcePoint" />
            <mxPoint x="160" y="240" as="targetPoint" />
          </mxGeometry>
        </mxCell>
      </root>
    </mxGraphModel>
  </diagram>
</mxfile>
